<svg xmlns="http://www.w3.org/2000/svg" xmlns:xlink="http://www.w3.org/1999/xlink" width="22.94cm" height="6.29cm" viewBox="0 0 650.19 178.27"><defs><linearGradient id="eece1ef2-fdb9-4f25-8c41-32c0410063e0" x1="174.87" y1="140.42" x2="205.27" y2="193.08" gradientUnits="userSpaceOnUse"><stop offset="0" stop-color="#fff" stop-opacity="0"/><stop offset="1" stop-color="#fff"/></linearGradient></defs><g id="be7264d0-a7f6-4822-a529-56648c14fce5" data-name="Software NEG"><path d="M291.93,231.92c0-5.43,4.11-8.06,9.54-8.06,6.12,0,10,4,10,9h-4.11c0-3.53-1.94-5.34-5.88-5.34-3.62,0-5.43,1.48-5.43,4.32,0,2.22,1.4,3.74,6.09,5.05,7.23,2.06,9.41,4.89,9.41,9.42,0,5.71-4.11,7.93-9.87,7.93-6.57,0-10.68-3.37-10.68-9h4.11c0,3.45,2.38,5.34,6.57,5.34,3.91,0,5.76-1.44,5.76-4.15,0-3.62-3.7-5-6.46-5.8C294.32,238.74,291.93,236,291.93,231.92Z" transform="translate(-76.03 -76.04)" fill="#fff"/><path d="M315,243.39v-.62c0-6.45,2.67-10.69,8.63-10.69s8.63,4.24,8.63,10.69v.62c0,6.08-2,10.89-8.63,10.89S315,249.47,315,243.39Zm3.7-.5v.7c0,5,1.11,7.4,4.93,7.4s4.93-2.42,4.93-7.4v-.7c0-5.14-1.15-7.52-4.93-7.52S318.73,237.75,318.73,242.89Z" transform="translate(-76.03 -76.04)" fill="#fff"/><path d="M347.29,227.27a14,14,0,0,0-1.89-.12c-2.42,0-3.29,1.31-3.29,3.95v1.39h4.53v3.29h-4.53v18.09h-3.7V235.78H335v-3.29h3.45v-1.35c0-4.61,2.1-7.28,6.66-7.28a9.88,9.88,0,0,1,2.22.25Z" transform="translate(-76.03 -76.04)" fill="#fff"/><path d="M361.47,253.62a9.88,9.88,0,0,1-2.22.25c-4.56,0-6.66-2.67-6.66-7.28V235.78h-3.45v-3.29h3.45v-5.75h3.7v5.75h4.53v3.29h-4.53v10.85c0,2.64.87,4.07,3.29,4.07a14,14,0,0,0,1.89-.12Z" transform="translate(-76.03 -76.04)" fill="#fff"/><path d="M383.46,248.11l3.5-15.62h3.9L385,253.87h-3l-4.76-15.5-4.65,15.5h-3l-5.84-21.38h3.91l3.61,15.29,4.57-15.29h3Z" transform="translate(-76.03 -76.04)" fill="#fff"/><path d="M406.23,253.87a7.61,7.61,0,0,1-.53-2.3,7.59,7.59,0,0,1-5.88,2.71c-3.83,0-6.91-2.43-6.91-6.33,0-4.56,3.21-7.24,9.41-7.24h3.29v-1.39c0-2.72-1-3.95-4-3.95-2.5,0-3.94,1.23-4.11,3.29h-3.7c.25-4,3.29-6.58,8-6.58,5,0,7.52,2.63,7.52,7v9.66a12.92,12.92,0,0,0,.87,5.1Zm-.62-6.5V244h-2.55c-4.56,0-6.45,1.15-6.45,3.62,0,2.3,1.32,3.37,3.78,3.37A5.78,5.78,0,0,0,405.61,247.37Z" transform="translate(-76.03 -76.04)" fill="#fff"/><path d="M425,235.66a8.62,8.62,0,0,0-2.26-.29c-2.43,0-4,1.89-4.73,4v14.51h-3.7V232.49h3.62v2.72a5.68,5.68,0,0,1,5-3.13,4.86,4.86,0,0,1,2.05.41Z" transform="translate(-76.03 -76.04)" fill="#fff"/><path d="M444.08,247.91a8.08,8.08,0,0,1-8.05,6.37c-6.42,0-9.17-4.48-9.17-10.36v-.66c-.17-6.45,3.45-11.18,8.67-11.18,5.63,0,8.55,4,8.55,10.94v1.8H430.6c.21,3.83,1.68,6.17,5.43,6.17a4,4,0,0,0,4.07-3.08Zm-13.36-6.37h9.62c-.2-4.07-1.68-6.17-4.81-6.17C432.57,235.37,431.18,237.59,430.72,241.54Z" transform="translate(-76.03 -76.04)" fill="#fff"/></g><g id="e3fc796f-db8e-44cf-bd86-a8e7a7441bf7" data-name="Sigma NEG Word"><path d="M291.39,203.39h57.49c12.24,0,22.2-9.36,22.2-20.87v-3.91c0-11.3-9.41-20.46-21.42-20.85l-.39,0H310.42a5.93,5.93,0,0,1-6.11-5.73v-3.77a5.94,5.94,0,0,1,6.11-5.75h56.32V127.35H310.42c-12.24,0-22.2,9.36-22.2,20.87V152c0,11.5,10,20.87,22.2,20.87h38.46a5.94,5.94,0,0,1,6.1,5.75v3.91a5.94,5.94,0,0,1-6.1,5.74H291.39Z" transform="translate(-76.03 -76.04)" fill="#fff"/><rect x="314.11" y="51.32" width="16.09" height="76.03" fill="#fff"/><path d="M615.27,203.35h16.1V148.24c0-11.51-10-20.87-22.21-20.87H529v76h16V142.5h26.8l0,60.85h16.06V142.5h21.32a6,6,0,0,1,6.12,5.74Z" transform="translate(-76.03 -76.04)" fill="#fff"/><path d="M726.23,148.22c0-11.51-10-20.87-22.22-20.87H652.9v15.13H704a6,6,0,0,1,6.12,5.74v9.51H669.56c-12.24,0-22.2,9.37-22.2,20.88v3.87c0,11.51,10,20.87,22.2,20.87h56.6Zm-16.14,40H669.56a6,6,0,0,1-6.12-5.74v-3.87a6,6,0,0,1,6.12-5.75h40.56Z" transform="translate(-76.03 -76.04)" fill="#fff"/><path d="M427.93,182.53c0,11.51,10,20.87,22.2,20.87H506.8V157.78H464.46v15.13h26.16v15.36H450.13a5.94,5.94,0,0,1-6.11-5.74l0-34.29a6,6,0,0,1,6.12-5.75h56.53V127.37H450.12c-12.25,0-22.2,9.36-22.2,20.87Z" transform="translate(-76.03 -76.04)" fill="#fff"/></g><g id="f1255463-8abd-4b24-86d5-43a6954392f2" data-name="Colour NEG Symbol"><path d="M76,165.17c0,12.68,26.08,23.41,62.09,27.06,3.64,36,14.38,62.08,27,62.08,15.68,0,28.38-39.91,28.38-89.14S180.85,76,165.17,76c-12.67,0-23.41,26.08-27,62.08-36,3.65-62.09,14.38-62.09,27" transform="translate(-76.03 -76.04)" fill="#e30613"/><path d="M138.13,192.23l54.1-54.11a270.72,270.72,0,0,0-27-1.33c-9.43,0-18.52.47-27.06,1.33a270.72,270.72,0,0,0-1.33,27c0,9.43.47,18.52,1.33,27.06Z" transform="translate(-76.03 -76.04)" fill="#b70e0c"/><path d="M192.22,138.12l-54.1,54.11a270.72,270.72,0,0,0,27,1.33c49.23,0,89.13-12.71,89.13-28.39C254.3,152.5,228.22,141.77,192.22,138.12Z" transform="translate(-76.03 -76.04)" opacity="0.81" fill="url(#eece1ef2-fdb9-4f25-8c41-32c0410063e0)"/></g></svg>